<svg xmlns="http://www.w3.org/2000/svg" viewBox="0 0 1200 630">
  <defs>
    <linearGradient id="bgGrad" x1="0%" y1="0%" x2="100%" y2="100%">
      <stop offset="0%" style="stop-color:#0a0a0a"/>
      <stop offset="100%" style="stop-color:#1a1a2e"/>
    </linearGradient>
    <linearGradient id="purpleGrad" x1="0%" y1="0%" x2="100%" y2="100%">
      <stop offset="0%" style="stop-color:#a855f7"/>
      <stop offset="100%" style="stop-color:#6366f1"/>
    </linearGradient>
  </defs>

  <!-- Background -->
  <rect width="1200" height="630" fill="url(#bgGrad)"/>

  <!-- Decorative circles -->
  <circle cx="100" cy="100" r="200" fill="#a855f7" opacity="0.1"/>
  <circle cx="1100" cy="530" r="250" fill="#6366f1" opacity="0.1"/>

  <!-- Logo icon -->
  <g transform="translate(100, 200)">
    <circle cx="60" cy="60" r="55" fill="#0a0a0a" stroke="url(#purpleGrad)" stroke-width="4"/>
    <path d="M68 25L45 68h20l-8 37 32-45h-20l8-35z" fill="url(#purpleGrad)"/>
  </g>

  <!-- App name -->
  <text x="230" y="280" font-family="system-ui, -apple-system, sans-serif" font-size="72" font-weight="bold" fill="white">xpenseshots</text>

  <!-- Tagline -->
  <text x="100" y="380" font-family="system-ui, -apple-system, sans-serif" font-size="32" fill="#a1a1aa">Screenshot to Expense Tracker</text>

  <!-- Features -->
  <text x="100" y="480" font-family="system-ui, -apple-system, sans-serif" font-size="24" fill="#71717a">Zero-friction expense tracking with OCR</text>
  <text x="100" y="520" font-family="system-ui, -apple-system, sans-serif" font-size="24" fill="#71717a">No accounts, no cloud, 100% private</text>

  <!-- Feature badges -->
  <g transform="translate(750, 350)">
    <rect x="0" y="0" width="120" height="40" rx="20" fill="#a855f7" opacity="0.2"/>
    <text x="60" y="27" font-family="system-ui, sans-serif" font-size="16" fill="#a855f7" text-anchor="middle">GPay</text>

    <rect x="140" y="0" width="120" height="40" rx="20" fill="#f97316" opacity="0.2"/>
    <text x="200" y="27" font-family="system-ui, sans-serif" font-size="16" fill="#f97316" text-anchor="middle">Swiggy</text>

    <rect x="280" y="0" width="120" height="40" rx="20" fill="#ef4444" opacity="0.2"/>
    <text x="340" y="27" font-family="system-ui, sans-serif" font-size="16" fill="#ef4444" text-anchor="middle">Zomato</text>

    <rect x="70" y="60" width="120" height="40" rx="20" fill="#22c55e" opacity="0.2"/>
    <text x="130" y="87" font-family="system-ui, sans-serif" font-size="16" fill="#22c55e" text-anchor="middle">Bank SMS</text>

    <rect x="210" y="60" width="120" height="40" rx="20" fill="#3b82f6" opacity="0.2"/>
    <text x="270" y="87" font-family="system-ui, sans-serif" font-size="16" fill="#3b82f6" text-anchor="middle">Manual</text>
  </g>
</svg>
